<svg fill="none" height="512" viewBox="0 0 512 512" width="512" xmlns="http://www.w3.org/2000/svg">
	<g clip-path="url(#clip0_2_2)">
		<path d="M369.588 32.3535C379.592 32.3535 388.835 37.6903 393.837 46.3535L507.025 242.4C512.026 251.064 512.026 261.737 507.025 270.4L393.837 466.447C388.835 475.111 379.592 480.447 369.588 480.447L143.213 480.447C133.209 480.447 123.966 475.111 118.964 466.447L5.77626 270.4C0.774532 261.737 0.774538 251.064 5.77625 242.4L118.964 46.3535C123.966 37.6903 133.209 32.3535 143.213 32.3535L369.588 32.3535Z" fill="url(#paint0_linear_2_2)" />
		<g filter="url(#filter0_d_2_2)">
			<path d="M287.536 242.638C315.644 242.638 338.129 265.001 338.129 292.956C338.129 302.796 335.319 312.077 330.372 319.793L365 354.457L349.372 370L314.294 335.671C306.537 340.48 297.318 343.275 287.536 343.275C259.429 343.275 236.943 320.911 236.943 292.956C236.943 265.001 259.429 242.638 287.536 242.638ZM287.536 265.001C280.082 265.001 272.933 267.947 267.662 273.189C262.39 278.432 259.429 285.542 259.429 292.956C259.429 300.37 262.39 307.481 267.662 312.723C272.933 317.966 280.082 320.911 287.536 320.911C294.991 320.911 302.14 317.966 307.411 312.723C312.682 307.481 315.644 300.37 315.644 292.956C315.644 285.542 312.682 278.432 307.411 273.189C302.14 267.947 294.991 265.001 287.536 265.001ZM169.486 142H326.887C339.366 142 349.372 151.952 349.372 164.364V254.155C343.751 245.209 335.993 237.494 326.887 231.456V164.364H169.486V320.911H220.079C223.564 329.298 228.624 336.79 234.807 343.275H169.486C157.006 343.275 147 333.323 147 320.911V164.364C147 151.952 157.006 142 169.486 142ZM191.972 186.728H304.401V209.092H191.972V186.728ZM191.972 231.456H248.523C239.529 237.047 231.772 244.762 225.7 253.82H191.972V231.456ZM191.972 276.183H216.369C215.132 281.774 214.457 287.365 214.457 292.956V298.547H191.972V276.183Z" fill="white" />
		</g>
	</g>
	<defs>
		<filter color-interpolation-filters="sRGB" filterUnits="userSpaceOnUse" height="258" id="filter0_d_2_2" width="248" x="147" y="142">
			<feFlood flood-opacity="0" result="BackgroundImageFix" />
			<feColorMatrix in="SourceAlpha" result="hardAlpha" type="matrix" values="0 0 0 0 0 0 0 0 0 0 0 0 0 0 0 0 0 0 127 0" />
			<feOffset dx="20" dy="20" />
			<feGaussianBlur stdDeviation="5" />
			<feComposite in2="hardAlpha" operator="out" />
			<feColorMatrix type="matrix" values="0 0 0 0 0 0 0 0 0 0 0 0 0 0 0 0 0 0 0.25 0" />
			<feBlend in2="BackgroundImageFix" mode="normal" result="effect1_dropShadow_2_2" />
			<feBlend in="SourceGraphic" in2="effect1_dropShadow_2_2" mode="normal" result="shape" />
		</filter>
		<linearGradient gradientUnits="userSpaceOnUse" id="paint0_linear_2_2" x1="126.939" x2="392.933" y1="38.6252" y2="481.247">
			<stop stop-color="#20BF55" />
			<stop offset="1" stop-color="#01BAEF" />
		</linearGradient>
		<clipPath id="clip0_2_2">
			<rect fill="white" height="512" width="512" />
		</clipPath>
	</defs>
</svg>
